<?xml version="1.0" standalone="no"?><!DOCTYPE svg PUBLIC "-//W3C//DTD SVG 1.1//EN"
    "http://www.w3.org/Graphics/SVG/1.1/DTD/svg11.dtd">
<svg t="1591245075952" class="icon" viewBox="0 0 1024 1024" version="1.1"
    xmlns="http://www.w3.org/2000/svg" p-id="1365" xmlns:xlink="http://www.w3.org/1999/xlink"
    width="200" height="200">
    <defs>
        <style type="text/css"></style>
    </defs>
    <path
        d="M0 0m125.582536 0l772.834928 0q125.582536 0 125.582536 125.582536l0 772.834928q0 125.582536-125.582536 125.582536l-772.834928 0q-125.582536 0-125.582536-125.582536l0-772.834928q0-125.582536 125.582536-125.582536Z"
        fill="#32BEA6" p-id="1366"></path>
    <path
        d="M160.368899 237.476576h703.262202a21.976944 21.976944 0 0 1 21.976944 21.976944V364.189355H138.14079v-104.735835a21.976944 21.976944 0 0 1 22.228109-21.976944z"
        fill="#F6AE98" p-id="1367"></path>
    <path
        d="M138.14079 364.189355h747.21609v433.25975a21.976944 21.976944 0 0 1-21.976944 21.976944h-703.262202A21.976944 21.976944 0 0 1 138.14079 797.449105V364.189355zM237.602158 204.573951h47.846947v66.684327h-47.846947zM400.10596 204.573951h47.846947v66.684327h-47.846947zM561.730684 204.573951h47.846947v66.684327h-47.846947zM722.601913 204.573951h47.846946v66.684327h-47.846946z"
        fill="#FFFFFF" p-id="1368"></path>
    <path d="M204.071621 430.873682h81.377484v81.377483h-81.377484z" fill="#CDEEFF"
        p-id="1369"></path>
    <path
        d="M333.798381 430.873682h81.377484v81.377483h-81.377484zM463.650724 657.675742h81.377483v81.377483h-81.377483z"
        fill="#81D4FE" p-id="1370"></path>
    <path
        d="M204.071621 542.893304h81.377484v81.377483h-81.377484zM335.933284 542.893304h81.377484v81.377483h-81.377484zM463.650724 542.893304h81.377483v81.377483h-81.377483zM463.650724 430.873682h81.377483v81.377483h-81.377483zM593.377483 430.873682h81.377484v81.377483h-81.377484zM722.601913 542.893304h81.377484v81.377483h-81.377484zM204.071621 657.675742h81.377484v81.377483h-81.377484z"
        fill="#CDEEFF" p-id="1371"></path>
    <path
        d="M376.622026 715.066961m-72.963454 0a72.963454 72.963454 0 1 0 145.926908 0 72.963454 72.963454 0 1 0-145.926908 0Z"
        fill="#FF5555" p-id="1372"></path>
    <path
        d="M329.528575 710.04366l26.874663 26.874662-0.376748 0.376748 11.553593 11.428011 0.251165-0.251165 11.553594-11.553594 40.939907-40.939906-11.553594-11.428011-40.939907 40.939907-26.74908-26.874663-11.553593 11.428011z"
        fill="#FFFFFF" p-id="1373"></path>
    <path
        d="M634.066225 604.177582m-72.963453 0a72.963454 72.963454 0 1 0 145.926907 0 72.963454 72.963454 0 1 0-145.926907 0Z"
        fill="#FF5555" p-id="1374"></path>
    <path
        d="M586.972774 599.15428l26.874663 26.874663-0.376748 0.251165 11.553594 11.553593 0.251165-0.251165 11.553593-11.553593 40.939907-40.939907-11.553594-11.553593-40.939906 40.939907-26.749081-26.874663-11.553593 11.553593z"
        fill="#FFFFFF" p-id="1375"></path>
    <path
        d="M763.290655 458.125092m-72.963454 0a72.963454 72.963454 0 1 0 145.926907 0 72.963454 72.963454 0 1 0-145.926907 0Z"
        fill="#FF5555" p-id="1376"></path>
    <path
        d="M716.197204 453.227373l26.874663 26.74908-0.376748 0.376748 11.553593 11.428011 0.376748-0.251165 11.428011-11.553594 40.939906-40.814324-11.553593-11.553593-40.814324 40.939906-26.874663-26.874662-11.553593 11.553593z"
        fill="#FFFFFF" p-id="1377"></path>
</svg>